<?xml version="1.0" standalone="no"?>
<!DOCTYPE svg PUBLIC "-//W3C//DTD SVG 20010904//EN"
 "http://www.w3.org/TR/2001/REC-SVG-20010904/DTD/svg10.dtd">
<svg version="1.0" xmlns="http://www.w3.org/2000/svg"
 width="512.000000pt" height="512.000000pt" viewBox="0 0 512.000000 512.000000"
 preserveAspectRatio="xMidYMid meet">
<metadata>
Created by potrace 1.11, written by Peter Selinger 2001-2013
</metadata>
<g transform="translate(0.000000,512.000000) scale(0.100000,-0.100000)"
fill="#000000" stroke="none">
<path d="M2297 5110 c-599 -68 -1128 -322 -1547 -740 -375 -373 -625 -854
-714 -1373 -53 -305 -45 -685 20 -981 185 -837 772 -1527 1564 -1839 186 -73
388 -126 605 -159 121 -18 549 -18 670 0 452 68 849 229 1190 485 562 421 910
1010 1017 1722 18 121 18 549 0 670 -107 716 -462 1312 -1029 1732 -326 241
-713 400 -1139 468 -116 19 -519 28 -637 15z m-540 -2395 c122 -346 247 -701
277 -787 l55 -158 -153 0 -154 0 -64 193 -65 192 -295 3 -296 2 -64 -192 -65
-193 -156 -3 -156 -3 18 53 c79 226 522 1479 530 1501 l11 27 177 -2 178 -3
222 -630z m2713 -155 l0 -790 -145 0 -145 0 0 290 0 290 -144 0 -144 0 -147
-274 c-80 -151 -152 -281 -158 -290 -11 -14 -33 -16 -169 -14 l-157 3 169 309
169 310 -42 20 c-108 55 -202 180 -228 304 -17 84 -7 253 20 323 60 156 204
268 384 298 29 5 206 9 395 10 l342 1 0 -790z m-1440 -5 l0 -115 -355 0 -355
0 0 115 0 115 355 0 355 0 0 -115z"/>
<path d="M1345 3009 c-8 -22 -205 -613 -205 -616 0 -2 97 -3 216 -3 169 0 215
3 212 13 -3 6 -49 145 -103 307 -54 162 -101 299 -106 304 -5 6 -11 4 -14 -5z"/>
<path d="M3821 3099 c-109 -21 -178 -83 -201 -180 -25 -105 11 -230 80 -277
63 -42 121 -52 307 -52 l173 0 0 260 0 260 -157 -1 c-87 -1 -178 -5 -202 -10z"/>
</g>
</svg>
